<svg width="25" height="12" viewBox="0 0 25 12" version="1.1" xmlns="http://www.w3.org/2000/svg" xmlns:xlink="http://www.w3.org/1999/xlink">
<title>Battery</title>
<desc>Created using Figma</desc>
<g id="Canvas" transform="translate(-586 390)">
<g id="Battery">
<g id="Rectangle" opacity="0.35">
<mask id="mask0_outline_ins">
<use xlink:href="#path0_fill" fill="white" transform="translate(586 -389.667)"/>
</mask>
<g mask="url(#mask0_outline_ins)">
<use xlink:href="#path1_stroke_2x" transform="translate(586 -389.667)"/>
</g>
</g>
<g id="Combined Shape" opacity="0.4">
<use xlink:href="#path2_fill" transform="translate(609 -386)"/>
</g>
<g id="Rectangle">
<use xlink:href="#path3_fill" transform="translate(588 -387.667)"/>
</g>
</g>
</g>
<defs>
<path id="path0_fill" fill-rule="evenodd" d="M 0 2.66667C 0 1.19391 1.19391 0 2.66667 0L 19.3333 0C 20.8061 0 22 1.19391 22 2.66667L 22 8.66667C 22 10.1394 20.8061 11.3333 19.3333 11.3333L 2.66667 11.3333C 1.19391 11.3333 0 10.1394 0 8.66667L 0 2.66667Z"/>
<path id="path1_stroke_2x" d="M 2.66667 1L 19.3333 1L 19.3333 -1L 2.66667 -1L 2.66667 1ZM 21 2.66667L 21 8.66667L 23 8.66667L 23 2.66667L 21 2.66667ZM 19.3333 10.3333L 2.66667 10.3333L 2.66667 12.3333L 19.3333 12.3333L 19.3333 10.3333ZM 1 8.66667L 1 2.66667L -1 2.66667L -1 8.66667L 1 8.66667ZM 2.66667 10.3333C 1.74619 10.3333 1 9.58714 1 8.66667L -1 8.66667C -1 10.6917 0.641623 12.3333 2.66667 12.3333L 2.66667 10.3333ZM 21 8.66667C 21 9.58714 20.2538 10.3333 19.3333 10.3333L 19.3333 12.3333C 21.3584 12.3333 23 10.6917 23 8.66667L 21 8.66667ZM 19.3333 1C 20.2538 1 21 1.74619 21 2.66667L 23 2.66667C 23 0.641623 21.3584 -1 19.3333 -1L 19.3333 1ZM 2.66667 -1C 0.641623 -1 -1 0.641623 -1 2.66667L 1 2.66667C 1 1.74619 1.74619 1 2.66667 1L 2.66667 -1Z"/>
<path id="path2_fill" d="M 0 0L 0 4C 0.804731 3.66122 1.32804 2.87313 1.32804 2C 1.32804 1.12687 0.804731 0.338777 0 0Z"/>
<path id="path3_fill" d="M 0 1.33333C 0 0.596954 0.596954 0 1.33333 0L 16.6667 0C 17.403 0 18 0.596954 18 1.33333L 18 6C 18 6.73638 17.403 7.33333 16.6667 7.33333L 1.33333 7.33333C 0.596954 7.33333 0 6.73638 0 6L 0 1.33333Z"/>
</defs>
</svg>
