<svg width="16" height="12" viewBox="0 0 16 12" version="1.1" xmlns="http://www.w3.org/2000/svg" xmlns:xlink="http://www.w3.org/1999/xlink">
<title>Wifi</title>
<desc>Created using Figma</desc>
<g id="Canvas" transform="translate(-565 390)">
<g id="Wifi">
<use xlink:href="#path0_fill" transform="translate(565.694 -389.669)"/>
</g>
</g>
<defs>
<path id="path0_fill" fill-rule="evenodd" d="M 7.63662 2.27731C 9.8525 2.27744 11.9837 3.12888 13.5896 4.65567C 13.7105 4.77353 13.9038 4.77203 14.0229 4.65231L 15.1789 3.48566C 15.2392 3.42493 15.2729 3.34268 15.2724 3.25711C 15.2719 3.17154 15.2373 3.08966 15.1763 3.02966C 10.9612 -1.00989 4.31138 -1.00989 0.0962743 3.02966C 0.0352239 3.08963 0.000571215 3.17145 6.6399e-06 3.25705C -0.000542676 3.34262 0.0330114 3.4249 0.0932836 3.48566L 1.24961 4.65231C 1.36864 4.77222 1.56208 4.77371 1.68294 4.65567C 3.2891 3.12875 5.42051 2.27731 7.63662 2.27731ZM 7.63662 6.073C 8.8541 6.07291 10.0281 6.52545 10.9306 7.34265C 11.0527 7.45865 11.245 7.45612 11.3639 7.33698L 12.5186 6.17032C 12.5794 6.10913 12.6132 6.02612 12.6123 5.93985C 12.6114 5.85358 12.576 5.77127 12.514 5.71133C 9.76575 3.15494 5.50982 3.15494 2.76162 5.71133C 2.69953 5.77127 2.66411 5.85364 2.66331 5.93991C 2.6625 6.02621 2.69634 6.10922 2.75729 6.17032L 3.91161 7.33698C 4.0306 7.45612 4.22289 7.45865 4.34495 7.34265C 5.24682 6.526 6.41993 6.07349 7.63662 6.073ZM 9.94961 8.6268C 9.95138 8.71332 9.91738 8.79672 9.85561 8.85733L 7.85828 10.873C 7.79974 10.9322 7.71992 10.9656 7.63662 10.9656C 7.55334 10.9656 7.4735 10.9322 7.41495 10.873L 5.41729 8.85733C 5.35558 8.79666 5.32163 8.71323 5.32346 8.62674C 5.32529 8.54022 5.36274 8.45831 5.42695 8.40033C 6.70252 7.32144 8.57072 7.32144 9.84629 8.40033C 9.91047 8.45834 9.94785 8.54028 9.94961 8.6268Z"/>
</defs>
</svg>
