<svg width="18" height="12" viewBox="0 0 18 12" version="1.1" xmlns="http://www.w3.org/2000/svg" xmlns:xlink="http://www.w3.org/1999/xlink">
<title>Mobile Signal</title>
<desc>Created using Figma</desc>
<g id="Canvas" transform="translate(-543 390)">
<g id="Mobile Signal">
<use xlink:href="#path0_fill" transform="translate(543.667 -389.333)"/>
</g>
</g>
<defs>
<path id="path0_fill" fill-rule="evenodd" d="M 16 0L 15 0C 14.4477 0 14 0.447723 14 1L 14 9.66666C 14 10.219 14.4477 10.6667 15 10.6667L 16 10.6667C 16.5523 10.6667 17 10.219 17 9.66666L 17 1C 17 0.447723 16.5523 0 16 0ZM 10.3333 2.33334L 11.3333 2.33334C 11.8856 2.33334 12.3333 2.78107 12.3333 3.33334L 12.3333 9.66669C 12.3333 10.219 11.8856 10.6667 11.3333 10.6667L 10.3333 10.6667C 9.78104 10.6667 9.33333 10.219 9.33333 9.66669L 9.33333 3.33334C 9.33333 2.78107 9.78104 2.33334 10.3333 2.33334ZM 6.66667 4.66666L 5.66667 4.66666C 5.11438 4.66666 4.66667 5.11438 4.66667 5.66666L 4.66667 9.66666C 4.66667 10.2189 5.11438 10.6667 5.66667 10.6667L 6.66667 10.6667C 7.21896 10.6667 7.66667 10.2189 7.66667 9.66666L 7.66667 5.66666C 7.66667 5.11438 7.21896 4.66666 6.66667 4.66666ZM 2 6.66666L 1 6.66666C 0.447708 6.66666 0 7.11438 0 7.66666L 0 9.66666C 0 10.2189 0.447708 10.6667 1 10.6667L 2 10.6667C 2.55229 10.6667 3 10.2189 3 9.66666L 3 7.66666C 3 7.11438 2.55229 6.66666 2 6.66666Z"/>
</defs>
</svg>
